<svg width="320" height="95" viewBox="0 0 320 95" fill="none" xmlns="http://www.w3.org/2000/svg">
<path d="M308.538 94.9193H11.6805C5.51235 94.9193 0.491699 89.8844 0.491699 83.721V11.461C0.491699 5.29522 5.51235 0.279297 11.6805 0.279297H308.538C314.704 0.279297 319.902 5.29522 319.902 11.461V83.721C319.902 89.8844 314.704 94.9193 308.538 94.9193Z" fill="#A6A6A6"/>
<path d="M317.615 83.7241C317.615 88.7305 313.559 92.7859 308.543 92.7859H11.6837C6.67011 92.7859 2.60059 88.7305 2.60059 83.7241V11.4594C2.60059 6.45526 6.67011 2.38574 11.6837 2.38574H308.541C313.559 2.38574 317.612 6.45526 317.612 11.4594L317.615 83.7241Z" fill="black"/>
<path d="M71.7731 47.0921C71.7044 39.4665 78.0169 35.7566 78.3056 35.5839C74.7306 30.3716 69.1894 29.6594 67.2422 29.6027C62.5882 29.1129 58.0739 32.3874 55.7032 32.3874C53.2851 32.3874 49.6344 29.65 45.6997 29.7304C40.6365 29.8085 35.8998 32.74 33.3019 37.2922C27.9405 46.574 31.9391 60.214 37.0757 67.7165C39.6451 71.3909 42.6476 75.4936 46.5775 75.3493C50.4223 75.1907 51.8584 72.8981 56.4982 72.8981C61.0953 72.8981 62.4439 75.3493 66.4519 75.257C70.5782 75.1907 73.1761 71.566 75.6557 67.8585C78.625 63.647 79.8175 59.4994 79.8648 59.2865C79.7678 59.2534 71.8511 56.232 71.7731 47.0921Z" fill="white"/>
<path d="M64.2011 24.6668C66.269 22.0807 67.6838 18.5625 67.2911 14.9922C64.2981 15.1247 60.5551 17.0624 58.3996 19.5917C56.4926 21.8205 54.7891 25.4736 55.2292 28.909C58.5913 29.1598 62.0433 27.2126 64.2011 24.6668Z" fill="white"/>
<path d="M127.418 74.8139H122.045L119.101 65.5652H108.871L106.067 74.8139H100.836L110.972 43.3271H117.232L127.418 74.8139ZM118.214 61.6849L115.552 53.4631C115.271 52.6232 114.743 50.6452 113.965 47.5315H113.87C113.56 48.8707 113.061 50.8487 112.375 53.4631L109.76 61.6849H118.214Z" fill="white"/>
<path d="M153.484 63.1825C153.484 67.0438 152.44 70.096 150.354 72.3366C148.484 74.3311 146.163 75.3272 143.393 75.3272C140.402 75.3272 138.254 74.253 136.945 72.1047H136.851V84.0648H131.807V59.5838C131.807 57.1563 131.743 54.6649 131.62 52.1097H136.056L136.337 55.7083H136.432C138.114 52.9969 140.667 51.6436 144.093 51.6436C146.771 51.6436 149.007 52.7012 150.796 54.8187C152.589 56.9387 153.484 59.7258 153.484 63.1825ZM148.345 63.3671C148.345 61.1572 147.848 59.3354 146.85 57.9016C145.759 56.4063 144.294 55.6587 142.458 55.6587C141.214 55.6587 140.083 56.0751 139.073 56.8961C138.06 57.7242 137.397 58.8054 137.087 60.1446C136.931 60.7692 136.853 61.2803 136.853 61.6825V65.4681C136.853 67.1196 137.36 68.5131 138.372 69.6512C139.385 70.7892 140.7 71.3571 142.319 71.3571C144.219 71.3571 145.697 70.6236 146.755 69.1614C147.815 67.6969 148.345 65.7662 148.345 63.3671Z" fill="white"/>
<path d="M179.598 63.1825C179.598 67.0438 178.554 70.096 176.465 72.3366C174.598 74.3311 172.277 75.3272 169.507 75.3272C166.516 75.3272 164.368 74.253 163.062 72.1047H162.967V84.0648H157.923V59.5838C157.923 57.1563 157.859 54.6649 157.736 52.1097H162.172L162.454 55.7083H162.548C164.228 52.9969 166.781 51.6436 170.209 51.6436C172.885 51.6436 175.121 52.7012 176.915 54.8187C178.701 56.9387 179.598 59.7258 179.598 63.1825ZM174.459 63.3671C174.459 61.1572 173.959 59.3354 172.961 57.9016C171.87 56.4063 170.411 55.6587 168.572 55.6587C167.325 55.6587 166.197 56.0751 165.184 56.8961C164.171 57.7242 163.511 58.8054 163.201 60.1446C163.048 60.7692 162.967 61.2803 162.967 61.6825V65.4681C162.967 67.1196 163.473 68.5131 164.481 69.6512C165.494 70.7869 166.809 71.3571 168.433 71.3571C170.332 71.3571 171.811 70.6236 172.869 69.1614C173.929 67.6969 174.459 65.7662 174.459 63.3671Z" fill="white"/>
<path d="M208.795 65.9863C208.795 68.6647 207.866 70.8437 205.999 72.526C203.947 74.3643 201.092 75.2824 197.422 75.2824C194.034 75.2824 191.318 74.6293 189.262 73.3209L190.431 69.1166C192.645 70.4557 195.075 71.1277 197.723 71.1277C199.622 71.1277 201.101 70.697 202.164 69.8406C203.221 68.9841 203.749 67.8342 203.749 66.4004C203.749 65.1228 203.313 64.0462 202.44 63.1732C201.572 62.3001 200.122 61.4886 198.096 60.7386C192.584 58.6825 189.83 55.6706 189.83 51.7099C189.83 49.1215 190.795 46.9992 192.728 45.3477C194.654 43.6939 197.223 42.8682 200.436 42.8682C203.302 42.8682 205.682 43.3674 207.582 44.3635L206.321 48.4756C204.546 47.5103 202.54 47.0276 200.294 47.0276C198.52 47.0276 197.133 47.4653 196.14 48.336C195.3 49.1144 194.879 50.0632 194.879 51.187C194.879 52.4315 195.359 53.4607 196.324 54.2699C197.164 55.0176 198.69 55.8267 200.905 56.6998C203.614 57.7905 205.604 59.0658 206.884 60.528C208.159 61.9854 208.795 63.8096 208.795 65.9863Z" fill="white"/>
<path d="M225.471 55.9007H219.911V66.9239C219.911 69.7276 220.891 71.1283 222.855 71.1283C223.756 71.1283 224.504 71.0502 225.095 70.894L225.235 74.7246C224.241 75.0961 222.933 75.283 221.312 75.283C219.32 75.283 217.763 74.6749 216.639 73.4612C215.52 72.245 214.957 70.2055 214.957 67.3403V55.896H211.645V52.1104H214.957V47.9533L219.911 46.458V52.1104H225.471V55.9007Z" fill="white"/>
<path d="M250.558 63.2783C250.558 66.7682 249.56 69.6334 247.568 71.874C245.479 74.1808 242.706 75.3307 239.249 75.3307C235.918 75.3307 233.265 74.2258 231.287 72.0159C229.309 69.8061 228.32 67.0166 228.32 63.6545C228.32 60.1363 229.338 57.2545 231.38 55.0139C233.417 52.7709 236.166 51.6494 239.623 51.6494C242.954 51.6494 245.635 52.7543 247.658 54.9665C249.593 57.1125 250.558 59.8831 250.558 63.2783ZM245.325 63.4416C245.325 61.3476 244.878 59.5519 243.971 58.0542C242.914 56.2418 241.402 55.338 239.443 55.338C237.415 55.338 235.875 56.2442 234.817 58.0542C233.911 59.5542 233.464 61.3784 233.464 63.5362C233.464 65.6301 233.911 67.4259 234.817 68.9212C235.908 70.7336 237.432 71.6374 239.398 71.6374C241.324 71.6374 242.836 70.7146 243.926 68.8739C244.856 67.3478 245.325 65.5331 245.325 63.4416Z" fill="white"/>
<path d="M266.956 56.5459C266.457 56.4536 265.925 56.4063 265.366 56.4063C263.592 56.4063 262.219 57.0759 261.254 58.4174C260.414 59.6004 259.993 61.0957 259.993 62.901V74.8138H254.951L254.998 59.2597C254.998 56.6429 254.934 54.2603 254.809 52.112H259.203L259.387 56.456H259.527C260.059 54.9631 260.899 53.7611 262.049 52.8597C263.173 52.0481 264.387 51.6436 265.695 51.6436C266.161 51.6436 266.582 51.6767 266.956 51.7358V56.5459Z" fill="white"/>
<path d="M289.516 62.3911C289.516 63.2949 289.456 64.0567 289.331 64.679H274.198C274.257 66.922 274.988 68.6373 276.394 69.8203C277.669 70.8779 279.318 71.4079 281.343 71.4079C283.584 71.4079 285.628 71.0506 287.467 70.3337L288.257 73.8354C286.109 74.7724 283.572 75.2385 280.645 75.2385C277.125 75.2385 274.361 74.2022 272.35 72.1319C270.344 70.0617 269.338 67.2816 269.338 63.7941C269.338 60.3705 270.273 57.5195 272.144 55.2458C274.104 52.8182 276.751 51.6045 280.082 51.6045C283.355 51.6045 285.832 52.8182 287.514 55.2458C288.846 57.1741 289.516 59.559 289.516 62.3911ZM284.706 61.0827C284.739 59.5874 284.41 58.2955 283.726 57.2048C282.853 55.8018 281.511 55.1014 279.706 55.1014C278.057 55.1014 276.716 55.7852 275.691 57.1575C274.851 58.2482 274.352 59.5566 274.198 61.0803H284.706V61.0827Z" fill="white"/>
<path d="M116.547 23.9651C116.547 26.7499 115.712 28.8462 114.044 30.2539C112.499 31.5529 110.304 32.2035 107.46 32.2035C106.049 32.2035 104.843 32.142 103.833 32.019V16.8032C105.15 16.5903 106.57 16.4814 108.103 16.4814C110.812 16.4814 112.854 17.0706 114.231 18.2488C115.774 19.5809 116.547 21.4855 116.547 23.9651ZM113.933 24.0337C113.933 22.2285 113.455 20.8443 112.499 19.879C111.543 18.9161 110.147 18.4334 108.309 18.4334C107.528 18.4334 106.863 18.4854 106.312 18.5943V30.1617C106.617 30.209 107.176 30.2303 107.987 30.2303C109.885 30.2303 111.349 29.7027 112.381 28.6474C113.412 27.5922 113.933 26.0543 113.933 24.0337Z" fill="white"/>
<path d="M130.409 26.3932C130.409 28.1085 129.919 29.5139 128.94 30.6165C127.913 31.7498 126.553 32.3153 124.854 32.3153C123.217 32.3153 121.913 31.7734 120.94 30.6851C119.97 29.5991 119.485 28.2292 119.485 26.5777C119.485 24.8505 119.985 23.4333 120.988 22.3331C121.991 21.2329 123.34 20.6816 125.038 20.6816C126.676 20.6816 127.991 21.2235 128.987 22.3094C129.934 23.3647 130.409 24.7275 130.409 26.3932ZM127.837 26.4736C127.837 25.4444 127.615 24.5619 127.172 23.8261C126.652 22.9364 125.911 22.4916 124.948 22.4916C123.952 22.4916 123.195 22.9364 122.675 23.8261C122.23 24.5619 122.01 25.4586 122.01 26.5186C122.01 27.5478 122.232 28.4303 122.675 29.1661C123.212 30.0557 123.959 30.5005 124.925 30.5005C125.871 30.5005 126.614 30.0486 127.149 29.1425C127.608 28.3924 127.837 27.5028 127.837 26.4736Z" fill="white"/>
<path d="M148.997 20.9111L145.507 32.0645H143.235L141.79 27.2213C141.423 26.0122 141.125 24.8103 140.893 23.6178H140.848C140.633 24.8434 140.335 26.043 139.951 27.2213L138.416 32.0645H136.119L132.837 20.9111H135.385L136.646 26.2133C136.951 27.4673 137.202 28.6621 137.403 29.7931H137.448C137.633 28.8609 137.938 27.6732 138.369 26.237L139.951 20.9135H141.972L143.489 26.1234C143.855 27.394 144.153 28.6172 144.383 29.7955H144.452C144.62 28.648 144.873 27.4247 145.209 26.1234L146.562 20.9135H148.997V20.9111Z" fill="white"/>
<path d="M161.851 32.0633H159.371V25.6751C159.371 23.7066 158.623 22.7224 157.123 22.7224C156.387 22.7224 155.794 22.9921 155.332 23.5339C154.876 24.0757 154.644 24.7145 154.644 25.4456V32.061H152.164V24.097C152.164 23.1175 152.133 22.0552 152.074 20.9053H154.253L154.369 22.649H154.438C154.727 22.1072 155.157 21.66 155.723 21.3028C156.395 20.8864 157.147 20.6758 157.97 20.6758C159.011 20.6758 159.877 21.0118 160.566 21.6861C161.422 22.5118 161.851 23.7445 161.851 25.3818V32.0633Z" fill="white"/>
<path d="M168.691 32.0639H166.213V15.793H168.691V32.0639Z" fill="white"/>
<path d="M183.286 26.3932C183.286 28.1085 182.796 29.5139 181.817 30.6165C180.79 31.7498 179.427 32.3153 177.731 32.3153C176.091 32.3153 174.787 31.7734 173.817 30.6851C172.847 29.5991 172.362 28.2292 172.362 26.5777C172.362 24.8505 172.862 23.4333 173.865 22.3331C174.868 21.2329 176.217 20.6816 177.913 20.6816C179.553 20.6816 180.866 21.2235 181.864 22.3094C182.811 23.3647 183.286 24.7275 183.286 26.3932ZM180.712 26.4736C180.712 25.4444 180.49 24.5619 180.047 23.8261C179.529 22.9364 178.786 22.4916 177.825 22.4916C176.827 22.4916 176.07 22.9364 175.552 23.8261C175.107 24.5619 174.887 25.4586 174.887 26.5186C174.887 27.5478 175.109 28.4303 175.552 29.1661C176.089 30.0557 176.836 30.5005 177.802 30.5005C178.748 30.5005 179.489 30.0486 180.023 29.1425C180.485 28.3924 180.712 27.5028 180.712 26.4736Z" fill="white"/>
<path d="M195.289 32.0621H193.062L192.878 30.7774H192.809C192.047 31.8018 190.961 32.3153 189.551 32.3153C188.498 32.3153 187.647 31.9769 187.005 31.305C186.423 30.6946 186.132 29.9351 186.132 29.0336C186.132 27.6708 186.7 26.6321 187.843 25.9129C188.983 25.1936 190.588 24.8411 192.653 24.8576V24.6494C192.653 23.1801 191.882 22.4467 190.337 22.4467C189.237 22.4467 188.266 22.7235 187.429 23.2724L186.925 21.6446C187.961 21.0034 189.241 20.6816 190.751 20.6816C193.666 20.6816 195.128 22.2195 195.128 25.2953V29.4027C195.128 30.5171 195.182 31.4044 195.289 32.0621ZM192.715 28.2292V26.5091C189.979 26.4618 188.612 27.2118 188.612 28.7568C188.612 29.3388 188.768 29.7742 189.087 30.0652C189.407 30.3562 189.814 30.5005 190.299 30.5005C190.843 30.5005 191.352 30.3278 191.815 29.9848C192.282 29.6393 192.568 29.2016 192.674 28.6645C192.7 28.5439 192.715 28.3972 192.715 28.2292Z" fill="white"/>
<path d="M209.378 32.0639H207.178L207.062 30.2729H206.994C206.291 31.6357 205.094 32.3171 203.411 32.3171C202.067 32.3171 200.948 31.7895 200.061 30.7343C199.174 29.679 198.731 28.3091 198.731 26.6269C198.731 24.8216 199.212 23.3594 200.177 22.2427C201.112 21.2016 202.257 20.6811 203.62 20.6811C205.117 20.6811 206.165 21.1851 206.762 22.1954H206.809V15.793H209.291V29.0591C209.291 30.1451 209.319 31.1459 209.378 32.0639ZM206.809 27.3603V25.5007C206.809 25.1789 206.785 24.9186 206.74 24.7199C206.601 24.1237 206.3 23.6221 205.844 23.2175C205.382 22.8129 204.826 22.6094 204.185 22.6094C203.26 22.6094 202.536 22.9761 202.004 23.712C201.476 24.4478 201.209 25.3871 201.209 26.5346C201.209 27.6372 201.462 28.5315 201.97 29.22C202.508 29.9535 203.232 30.3202 204.138 30.3202C204.952 30.3202 205.602 30.015 206.097 29.4022C206.575 28.8367 206.809 28.1553 206.809 27.3603Z" fill="white"/>
<path d="M230.585 26.3932C230.585 28.1085 230.096 29.5139 229.116 30.6165C228.089 31.7498 226.731 32.3153 225.03 32.3153C223.395 32.3153 222.092 31.7734 221.117 30.6851C220.147 29.5991 219.662 28.2292 219.662 26.5777C219.662 24.8505 220.161 23.4333 221.164 22.3331C222.167 21.2329 223.516 20.6816 225.217 20.6816C226.852 20.6816 228.17 21.2235 229.163 22.3094C230.11 23.3647 230.585 24.7275 230.585 26.3932ZM228.016 26.4736C228.016 25.4444 227.794 24.5619 227.351 23.8261C226.828 22.9364 226.09 22.4916 225.125 22.4916C224.131 22.4916 223.374 22.9364 222.851 23.8261C222.406 24.5619 222.186 25.4586 222.186 26.5186C222.186 27.5478 222.409 28.4303 222.851 29.1661C223.388 30.0557 224.136 30.5005 225.101 30.5005C226.047 30.5005 226.793 30.0486 227.327 29.1425C227.784 28.3924 228.016 27.5028 228.016 26.4736Z" fill="white"/>
<path d="M243.916 32.0633H241.439V25.6751C241.439 23.7066 240.691 22.7224 239.189 22.7224C238.453 22.7224 237.859 22.9921 237.4 23.5339C236.941 24.0757 236.712 24.7145 236.712 25.4456V32.061H234.23V24.097C234.23 23.1175 234.201 22.0552 234.142 20.9053H236.319L236.435 22.649H236.503C236.794 22.1072 237.225 21.66 237.788 21.3028C238.462 20.8864 239.212 20.6758 240.038 20.6758C241.077 20.6758 241.943 21.0118 242.631 21.6861C243.49 22.5118 243.916 23.7445 243.916 25.3818V32.0633Z" fill="white"/>
<path d="M260.602 22.7688H257.871V28.1869C257.871 29.5639 258.357 30.2524 259.317 30.2524C259.762 30.2524 260.131 30.2146 260.422 30.1365L260.486 32.0175C259.996 32.202 259.353 32.2943 258.56 32.2943C257.58 32.2943 256.819 31.9962 256.267 31.3999C255.714 30.8037 255.439 29.8005 255.439 28.3928V22.7688H253.809V20.9115H255.439V18.8672L257.869 18.1338V20.9091H260.599V22.7688H260.602Z" fill="white"/>
<path d="M273.73 32.0639H271.248V25.7231C271.248 23.7238 270.5 22.723 269.003 22.723C267.853 22.723 267.067 23.3027 266.637 24.462C266.563 24.7057 266.521 25.0038 266.521 25.354V32.0616H264.043V15.793H266.521V22.5148H266.568C267.349 21.2916 268.468 20.6811 269.918 20.6811C270.945 20.6811 271.794 21.0171 272.469 21.6914C273.309 22.5313 273.73 23.7806 273.73 25.4321V32.0639Z" fill="white"/>
<path d="M287.271 25.9625C287.271 26.4073 287.238 26.7811 287.179 27.0864H279.743C279.776 28.1889 280.131 29.0288 280.819 29.6109C281.449 30.1314 282.26 30.3917 283.254 30.3917C284.354 30.3917 285.357 30.2166 286.261 29.864L286.649 31.5865C285.592 32.0455 284.347 32.275 282.906 32.275C281.179 32.275 279.818 31.7663 278.834 30.7489C277.845 29.7315 277.355 28.3664 277.355 26.6534C277.355 24.9712 277.812 23.5705 278.732 22.4537C279.693 21.2613 280.992 20.665 282.632 20.665C284.236 20.665 285.454 21.2613 286.278 22.4537C286.943 23.4001 287.271 24.5713 287.271 25.9625ZM284.905 25.3213C284.924 24.5855 284.761 23.9514 284.425 23.4167C283.994 22.7282 283.339 22.3828 282.452 22.3828C281.643 22.3828 280.983 22.7187 280.479 23.393C280.067 23.9301 279.823 24.5713 279.743 25.3213H284.905Z" fill="white"/>
</svg>
