<svg width="323" height="96" viewBox="0 0 323 96" fill="none" xmlns="http://www.w3.org/2000/svg">
<path fill-rule="evenodd" clip-rule="evenodd" d="M310.682 95.2038H11.9539C5.3656 95.2038 0 89.8382 0 83.3033V11.9005C0 5.34186 5.3656 0 11.9539 0H310.682C317.265 0 322.636 5.34186 322.636 11.9005V83.3033C322.636 89.8382 317.265 95.2038 310.682 95.2038Z" fill="black"/>
<path fill-rule="evenodd" clip-rule="evenodd" d="M310.682 1.90526C316.208 1.90526 320.731 6.39836 320.731 11.9005V83.3033C320.731 88.8054 316.238 93.2985 310.682 93.2985H11.9539C6.42803 93.2985 1.90526 88.8054 1.90526 83.3033V11.9005C1.90526 6.39836 6.39836 1.90526 11.9539 1.90526H310.682ZM310.682 0H11.9539C5.3656 0 0 5.3656 0 11.9005V83.3033C0 89.8619 5.3656 95.2038 11.9539 95.2038H310.682C317.265 95.2038 322.636 89.8619 322.636 83.3033V11.9005C322.636 5.3656 317.265 0 310.682 0Z" fill="#A6A6A6"/>
<path d="M169.967 31.4911C167.813 31.4911 165.996 30.7373 164.56 29.2534C163.136 27.8111 162.34 25.8228 162.376 23.7929C162.376 21.6264 163.112 19.7924 164.56 18.3382C165.99 16.8544 167.807 16.1006 169.961 16.1006C172.092 16.1006 173.908 16.8544 175.368 18.3382C176.817 19.8399 177.553 21.6739 177.553 23.7929C177.529 25.9652 176.793 27.7993 175.368 29.2475C173.938 30.7432 172.122 31.4911 169.967 31.4911ZM105.859 31.4911C103.752 31.4911 101.924 30.7491 100.428 29.2831C98.9442 27.823 98.1904 25.9771 98.1904 23.7988C98.1904 21.6205 98.9442 19.7746 100.428 18.3145C101.894 16.8484 103.722 16.1065 105.859 16.1065C106.904 16.1065 107.919 16.3143 108.892 16.7357C109.848 17.1452 110.625 17.7031 111.201 18.3857L111.343 18.5578L109.735 20.1367L109.569 19.9408C108.66 18.8605 107.444 18.3323 105.835 18.3323C104.399 18.3323 103.146 18.8427 102.114 19.8518C101.075 20.8667 100.547 22.1962 100.547 23.8047C100.547 25.4132 101.075 26.7428 102.114 27.7577C103.146 28.7667 104.399 29.2772 105.835 29.2772C107.367 29.2772 108.655 28.7667 109.658 27.7577C110.251 27.1642 110.619 26.3332 110.75 25.2826H105.592V23.0628H112.964L112.993 23.2646C113.047 23.6385 113.1 24.0243 113.1 24.3805C113.1 26.4282 112.483 28.0842 111.26 29.3068C109.871 30.7551 108.055 31.4911 105.859 31.4911ZM191.097 31.1765H188.824L181.862 20.0358L181.921 22.0419V31.1706H179.648V16.4211H182.242L182.313 16.5339L188.86 27.0277L188.8 25.0274V16.4211H191.097V31.1765ZM152.885 31.1765H150.582V18.6409H146.588V16.4211H156.874V18.6409H152.879V31.1765H152.885ZM144.712 31.1765H142.415V16.4211H144.712V31.1765ZM131.803 31.1765H129.506V18.6409H125.511V16.4211H135.797V18.6409H131.803V31.1765ZM124.057 31.1528H115.249V16.4211H124.057V18.6409H117.552V22.6889H123.422V24.885H117.552V28.9329H124.057V31.1528ZM166.246 27.728C167.273 28.7549 168.519 29.2712 169.967 29.2712C171.457 29.2712 172.674 28.7667 173.689 27.728C174.698 26.719 175.208 25.3954 175.208 23.7988C175.208 22.2022 174.698 20.8726 173.695 19.8696C172.668 18.8427 171.415 18.3264 169.973 18.3264C168.483 18.3264 167.267 18.8309 166.258 19.8696C165.249 20.8786 164.738 22.2022 164.738 23.7988C164.738 25.3954 165.243 26.7249 166.246 27.728Z" fill="white"/>
<path fill-rule="evenodd" clip-rule="evenodd" d="M162.161 51.7807C156.552 51.7807 152.005 56.0364 152.005 61.9065C152.005 67.7232 156.581 72.0323 162.161 72.0323C167.77 72.0323 172.316 67.7469 172.316 61.9065C172.316 56.0364 167.77 51.7807 162.161 51.7807ZM162.161 68.0199C159.092 68.0199 156.451 65.4796 156.451 61.8827C156.451 58.2325 159.098 55.7455 162.161 55.7455C165.229 55.7455 167.87 58.2325 167.87 61.8827C167.876 65.5033 165.229 68.0199 162.161 68.0199ZM140.004 51.7807C134.395 51.7807 129.848 56.0364 129.848 61.9065C129.848 67.7232 134.424 72.0323 140.004 72.0323C145.613 72.0323 150.159 67.7469 150.159 61.9065C150.159 56.0364 145.607 51.7807 140.004 51.7807ZM140.004 68.0199C136.935 68.0199 134.294 65.4796 134.294 61.8827C134.294 58.2325 136.941 55.7455 140.004 55.7455C143.072 55.7455 145.714 58.2325 145.714 61.8827C145.714 65.5033 143.072 68.0199 140.004 68.0199ZM113.639 54.873V59.1584H123.925C123.61 61.5622 122.815 63.3369 121.598 64.5537C120.09 66.0613 117.764 67.6994 113.662 67.6994C107.341 67.6994 102.397 62.595 102.397 56.2738C102.397 49.9526 107.341 44.8482 113.662 44.8482C117.075 44.8482 119.562 46.1955 121.408 47.9168L124.447 44.8778C121.883 42.4206 118.47 40.5391 113.686 40.5391C105.015 40.5391 97.7378 47.6022 97.7378 56.2501C97.7378 64.9217 105.009 71.9611 113.686 71.9611C118.369 71.9611 121.883 70.4297 124.661 67.5451C127.492 64.7139 128.388 60.7194 128.388 57.4965C128.388 56.4934 128.311 55.5912 128.151 54.8256H113.633C113.639 54.8196 113.639 54.873 113.639 54.873ZM221.479 58.2087C220.63 55.9355 218.066 51.757 212.807 51.757C207.596 51.757 203.263 55.8583 203.263 61.8827C203.263 67.5689 207.549 72.0085 213.312 72.0085C217.941 72.0085 220.636 69.1774 221.746 67.5154L218.309 65.2125C217.17 66.9041 215.585 68.014 213.336 68.014C211.062 68.014 209.472 66.9813 208.415 64.9454L221.954 59.3365C221.954 59.3424 221.479 58.2087 221.479 58.2087ZM207.673 61.5919C207.566 57.6805 210.712 55.6921 212.962 55.6921C214.736 55.6921 216.214 56.5646 216.719 57.8348L207.673 61.5919ZM196.675 71.4031H201.121V41.6549H196.675V71.4031ZM189.374 54.0302H189.214C188.211 52.8372 186.306 51.757 183.872 51.757C178.821 51.757 174.168 56.2026 174.168 61.9124C174.168 67.5985 178.798 71.9907 183.872 71.9907C186.276 71.9907 188.211 70.9046 189.214 69.6878H189.374V71.142C189.374 75.0059 187.309 77.0892 183.979 77.0892C181.255 77.0892 179.563 75.1306 178.875 73.4924L175.011 75.1068C176.121 77.7777 179.082 81.0838 183.973 81.0838C189.184 81.0838 193.6 78.0152 193.6 70.5306V52.3624H189.398V54.0302C189.404 54.0302 189.374 54.0302 189.374 54.0302ZM184.27 68.0199C181.201 68.0199 178.637 65.4559 178.637 61.9124C178.637 58.3393 181.201 55.7515 184.27 55.7515C187.309 55.7515 189.665 58.369 189.665 61.9124C189.695 65.4559 187.315 68.0199 184.27 68.0199ZM242.294 41.6549H231.664V71.4031H236.11V60.1377H242.3C247.221 60.1377 252.058 56.5706 252.058 50.9082C252.058 45.2458 247.239 41.6549 242.294 41.6549ZM242.425 55.983H236.104V45.7741H242.425C245.755 45.7741 247.636 48.5222 247.636 50.8785C247.636 53.2111 245.731 55.983 242.425 55.983ZM269.876 51.7273C266.647 51.7273 263.318 53.1577 261.941 56.2738L265.882 57.912C266.73 56.2738 268.285 55.7159 269.93 55.7159C272.233 55.7159 274.559 57.0929 274.613 59.5501V59.8647C273.817 59.4136 272.072 58.7251 269.983 58.7251C265.727 58.7251 261.412 61.0518 261.412 65.4143C261.412 69.4088 264.902 71.9729 268.79 71.9729C271.776 71.9729 273.42 70.6256 274.446 69.0646H274.607V71.3675H278.892V59.9716C278.892 54.6653 274.951 51.7273 269.876 51.7273ZM269.318 68.0199C267.864 68.0199 265.828 67.3077 265.828 65.4796C265.828 63.1767 268.369 62.3042 270.535 62.3042C272.494 62.3042 273.42 62.7256 274.583 63.3072C274.262 65.9782 272.007 67.9962 269.318 68.0199ZM294.526 52.3624L289.421 65.2659H289.261L283.973 52.3624H279.189L287.124 70.4L282.602 80.4249H287.231L299.44 52.3624H294.526ZM254.509 71.4031H258.955V41.6549H254.509V71.4031Z" fill="white"/>
<path fill-rule="evenodd" clip-rule="evenodd" d="M24.8328 17.9298C24.1443 18.6717 23.7466 19.8054 23.7466 21.2892V73.9184C23.7466 75.4022 24.1443 76.5359 24.8565 77.2481L25.0405 77.4084L54.5275 47.9213V47.2625L25.0168 17.7695L24.8328 17.9298Z" fill="url(#paint0_linear)"/>
<path fill-rule="evenodd" clip-rule="evenodd" d="M64.3393 57.7783L54.5044 47.9434V47.2549L64.3393 37.4199L64.553 37.5505L76.1864 44.1625C79.5162 46.0381 79.5162 49.1364 76.1864 51.0357L64.553 57.6478L64.3393 57.7783Z" fill="url(#paint1_linear)"/>
<path fill-rule="evenodd" clip-rule="evenodd" d="M64.5517 57.6492L54.5031 47.6006L24.832 77.2716C25.9182 78.435 27.7404 78.5656 29.7762 77.4319L64.5517 57.6492Z" fill="url(#paint2_linear)"/>
<path fill-rule="evenodd" clip-rule="evenodd" d="M64.5517 37.5515L29.7762 17.7985C27.7404 16.6351 25.9123 16.7954 24.832 17.9587L54.5031 47.6001L64.5517 37.5515Z" fill="url(#paint3_linear)"/>
<path opacity="0.2" fill-rule="evenodd" clip-rule="evenodd" d="M64.3411 57.4346L29.8031 77.057C27.8741 78.1669 26.1528 78.0897 25.0429 77.0807L24.8589 77.2647L25.0429 77.425C26.1528 78.4281 27.8741 78.5112 29.8031 77.4012L64.5786 57.6482L64.3411 57.4346Z" fill="black"/>
<path opacity="0.12" fill-rule="evenodd" clip-rule="evenodd" d="M76.1863 50.6929L64.3096 57.4355L64.5232 57.6492L76.1566 51.0372C77.8245 50.0875 78.6436 48.8411 78.6436 47.6006C78.5427 48.7402 77.6939 49.8204 76.1863 50.6929Z" fill="black"/>
<path opacity="0.25" fill-rule="evenodd" clip-rule="evenodd" d="M29.7769 18.1423L76.1858 44.5074C77.6934 45.3561 78.5422 46.466 78.6727 47.5997C78.6727 46.3592 77.8537 45.1128 76.1858 44.1631L29.7769 17.7981C26.4472 15.8928 23.7466 17.4835 23.7466 21.2881V21.6323C23.7466 17.8218 26.4472 16.2608 29.7769 18.1423Z" fill="white"/>
<defs>
<linearGradient id="paint0_linear" x1="51.8826" y1="20.7214" x2="4.64945" y2="33.3067" gradientUnits="userSpaceOnUse">
<stop stop-color="#00A0FF"/>
<stop offset="0.00657" stop-color="#00A1FF"/>
<stop offset="0.2601" stop-color="#00BEFF"/>
<stop offset="0.5122" stop-color="#00D2FF"/>
<stop offset="0.7604" stop-color="#00DFFF"/>
<stop offset="1" stop-color="#00E3FF"/>
</linearGradient>
<linearGradient id="paint1_linear" x1="80.5287" y1="47.5992" x2="22.9379" y2="47.5992" gradientUnits="userSpaceOnUse">
<stop stop-color="#FFE000"/>
<stop offset="0.4087" stop-color="#FFBD00"/>
<stop offset="0.7754" stop-color="#FFA500"/>
<stop offset="1" stop-color="#FF9C00"/>
</linearGradient>
<linearGradient id="paint2_linear" x1="59.0877" y1="53.0685" x2="21.1691" y2="116.889" gradientUnits="userSpaceOnUse">
<stop stop-color="#FF3A44"/>
<stop offset="1" stop-color="#C31162"/>
</linearGradient>
<linearGradient id="paint3_linear" x1="17.3605" y1="0.42374" x2="34.2775" y2="28.9268" gradientUnits="userSpaceOnUse">
<stop stop-color="#32A071"/>
<stop offset="0.0685" stop-color="#2DA771"/>
<stop offset="0.4762" stop-color="#15CF74"/>
<stop offset="0.8009" stop-color="#06E775"/>
<stop offset="1" stop-color="#00F076"/>
</linearGradient>
</defs>
</svg>
