<svg width="386" height="95" viewBox="0 0 386 95" fill="none" xmlns="http://www.w3.org/2000/svg">
<path d="M372.103 94.9193H14.2458C6.81014 94.9193 0.757812 89.8844 0.757812 83.721V11.461C0.757812 5.29522 6.81014 0.279297 14.2458 0.279297H372.103C379.536 0.279297 385.802 5.29522 385.802 11.461V83.721C385.802 89.8844 379.536 94.9193 372.103 94.9193Z" fill="#A6A6A6"/>
<path d="M382.897 83.7241C382.897 88.7305 378.013 92.7859 371.971 92.7859H14.3869C8.34776 92.7859 3.4458 88.7305 3.4458 83.7241V11.4594C3.4458 6.45526 8.34776 2.38574 14.3869 2.38574H371.968C378.013 2.38574 382.895 6.45526 382.895 11.4594L382.897 83.7241Z" fill="black"/>
<path d="M128.187 59.6575L134.149 41.4727L140.111 59.6575H144.024L151.738 33.6846H147.564L141.863 53.5835L135.863 35.1379H132.435L126.473 53.5835L120.734 33.6846H116.561L124.274 59.6575H128.187Z" fill="white"/>
<path d="M161.13 40.951C157.851 40.951 155.242 42.218 153.118 44.8265L155.913 47.1741C157.292 45.2736 159.081 44.3048 161.093 44.3048C163.515 44.3048 164.968 45.7208 164.968 48.1057V48.7392H160.683C158.074 48.7392 156.36 49.0373 155.093 49.6708C153.454 50.4906 152.559 52.0556 152.559 54.1424C152.559 57.6452 155.168 59.9928 159.081 59.9928C161.689 59.9928 163.813 58.9122 165.006 57.049L165.304 59.6575H168.806V48.1057C168.806 43.634 165.9 40.951 161.13 40.951ZM159.789 56.7509C157.702 56.7509 156.398 55.782 156.398 54.2169C156.398 53.4344 156.658 52.8009 157.217 52.4283C157.925 51.8693 159.006 51.683 161.13 51.683H164.968V51.7575C164.968 54.6641 162.77 56.7509 159.789 56.7509Z" fill="white"/>
<path d="M183.016 56.341C182.196 56.6018 181.451 56.7509 180.817 56.7509C179.364 56.7509 178.507 56.0056 178.507 54.4405V44.3793H183.016V41.2864H178.507V34.4671L174.669 37.3364V41.2864H171.65V44.3793H174.669V54.7759C174.669 58.465 176.979 59.9928 179.886 59.9928C180.892 59.9928 181.973 59.8065 183.053 59.4711L183.016 56.341Z" fill="white"/>
<path d="M194.215 59.9928C197.755 59.9928 200.55 58.0924 201.78 54.6641L198.277 53.3226C197.718 55.3721 196.153 56.6391 194.215 56.6391C190.787 56.6391 189.445 53.7325 189.445 50.5278C189.445 47.3231 190.824 44.3048 194.178 44.3048C196.19 44.3048 197.718 45.609 198.314 47.6585L201.966 46.2425C200.55 42.6652 197.718 40.951 194.178 40.951C188.327 40.951 185.533 45.6835 185.533 50.5278C185.533 55.4467 188.439 59.9928 194.215 59.9928Z" fill="white"/>
<path d="M215.27 40.951C212.773 40.951 210.761 41.8826 209.569 43.5595V33.6846H205.731V59.6575H209.569V51.9438C209.569 46.7269 211.022 44.3048 214.152 44.3048C216.612 44.3048 217.767 45.7581 217.767 48.9627V59.6575H221.605V47.9939C221.605 43.4477 219.369 40.951 215.27 40.951Z" fill="white"/>
<path d="M243.823 59.9928C249.338 59.9928 252.878 55.7075 252.878 50.4533C252.878 45.1618 249.338 40.951 243.823 40.951C238.271 40.951 234.731 45.1618 234.731 50.4533C234.731 55.7075 238.271 59.9928 243.823 59.9928ZM243.823 56.6391C240.246 56.6391 238.569 53.8443 238.569 50.4533C238.569 47.0623 240.246 44.3048 243.823 44.3048C247.363 44.3048 249.04 47.0623 249.04 50.4533C249.04 53.807 247.401 56.6391 243.823 56.6391Z" fill="white"/>
<path d="M266.581 40.951C264.196 40.951 262.109 41.8081 260.842 43.5595V41.2864H257.004V59.6575H260.842V52.0184C260.842 48.1057 261.513 44.3048 265.463 44.3048C268.63 44.3048 269.04 46.8014 269.04 48.9627V59.6575H272.878V47.9939C272.878 43.485 270.642 40.951 266.581 40.951Z" fill="white"/>
<path d="M297.184 59.6575L303.146 41.4727L309.109 59.6575H313.021L320.735 33.6846H316.561L310.86 53.5835L304.861 35.1379H301.432L295.47 53.5835L289.731 33.6846H285.558L293.271 59.6575H297.184Z" fill="white"/>
<path d="M338.332 50.0061C338.332 45.1991 335.723 40.951 330.022 40.951C324.171 40.951 321.488 45.6463 321.488 50.5651C321.488 55.5957 324.246 59.9928 330.32 59.9928C333.338 59.9928 335.649 59.024 337.735 56.7509L335.052 54.4405C333.674 56.0056 332.146 56.5273 330.357 56.5273C327.227 56.5273 325.476 54.6268 325.327 51.683H338.22C338.294 51.124 338.332 50.5651 338.332 50.0061ZM325.327 48.5901C325.587 46.317 327.078 44.1557 330.022 44.1557C332.742 44.1557 334.568 45.9071 334.643 48.5156V48.5901H325.327Z" fill="white"/>
<path d="M351.949 40.9138C349.676 40.9138 347.552 41.8454 346.397 43.3359V33.6846H342.559V59.6575H346.397V57.608C347.664 59.2476 349.751 59.9928 351.949 59.9928C357.054 59.9928 359.812 55.9683 359.812 50.4533C359.812 44.5283 356.644 40.9138 351.949 40.9138ZM351.092 56.49C347.627 56.49 346.024 53.9188 346.024 50.4906C346.024 46.9878 347.701 44.3793 351.055 44.3793C354.297 44.3793 355.974 46.7269 355.974 50.4906C355.974 54.1424 354.371 56.49 351.092 56.49Z" fill="white"/>
<rect x="32.9829" y="21.7627" width="57.5746" height="39.8521" rx="1.43363" stroke="white" stroke-width="2.86726"/>
<line x1="23.3774" y1="70.3495" x2="100.162" y2="70.3495" stroke="white" stroke-width="5.73452"/>
</svg>
